<svg xmlns="http://www.w3.org/2000/svg" width="800" height="700" fill="none">
    <!-- Background -->
    <rect width="800" height="700" fill="#f0f2f5"/>
    
    <!-- Card Container with Shadow -->
    <rect x="100" y="50" width="600" height="600" rx="10" fill="white" filter="drop-shadow(0 4px 6px rgba(0,0,0,0.1))"/>
    
    <!-- Header Section -->
    <rect x="100" y="50" width="600" height="60" rx="10" fill="#f8fafc"/>
    <text x="130" y="90" font-family="Arial" font-size="20" font-weight="bold" fill="#1e293b">
        Partner Management
    </text>

    <!-- Partner Information Grid -->
    <g transform="translate(130, 140)">
        <!-- Partner ID -->
        <text font-family="Arial" font-size="14" fill="#64748b">Partner ID</text>
        <rect x="0" y="20" width="250" height="35" rx="6" fill="#f1f5f9"/>
        <text x="10" y="42" font-family="Arial" font-size="14" fill="#334155">
            PRTNR-12345-ABC
        </text>
        
        <!-- Status -->
        <text x="280" y="0" font-family="Arial" font-size="14" fill="#64748b">Status</text>
        <rect x="280" y="20" width="120" height="28" rx="14" fill="#dcfce7"/>
        <text x="340" y="38" font-family="Arial" font-size="13" fill="#166534" text-anchor="middle">
            AUTHORIZED
        </text>

        <!-- Type -->
        <text x="0" y="80" font-family="Arial" font-size="14" fill="#64748b">Type</text>
        <rect x="0" y="100" width="250" height="35" rx="6" fill="#f1f5f9"/>
        <text x="10" y="122" font-family="Arial" font-size="14" fill="#334155">
            Seller
        </text>

        <!-- Region -->
        <text x="280" y="80" font-family="Arial" font-size="14" fill="#64748b">Region</text>
        <rect x="280" y="100" width="250" height="35" rx="6" fill="#f1f5f9"/>
        <text x="290" y="122" font-family="Arial" font-size="14" fill="#334155">
            North America (NA)
        </text>

        <!-- Last Token Refresh -->
        <text x="0" y="160" font-family="Arial" font-size="14" fill="#64748b">Last Token Refresh</text>
        <rect x="0" y="180" width="250" height="35" rx="6" fill="#f1f5f9"/>
        <text x="10" y="202" font-family="Arial" font-size="14" fill="#334155">
            2024-03-20 14:30:00 UTC
        </text>

        <!-- Marketplace -->
        <text x="280" y="160" font-family="Arial" font-size="14" fill="#64748b">Marketplace</text>
        <rect x="280" y="180" width="250" height="35" rx="6" fill="#f1f5f9"/>
        <text x="290" y="202" font-family="Arial" font-size="14" fill="#334155">
            United States (US)
        </text>

        <!-- Amazon ID -->
        <text x="0" y="240" font-family="Arial" font-size="14" fill="#64748b">Amazon ID</text>
        <rect x="0" y="260" width="250" height="35" rx="6" fill="#f1f5f9"/>
        <text x="10" y="282" font-family="Arial" font-size="14" fill="#334155">
            AZID93123124
        </text>

        <!-- API Endpoint -->
        <text x="280" y="240" font-family="Arial" font-size="14" fill="#64748b">API Endpoint</text>
        <rect x="280" y="260" width="250" height="35" rx="6" fill="#f1f5f9"/>
        <text x="290" y="282" font-family="Arial" font-size="14" fill="#334155">
            sellingpartnerapi-na.amazon.com
        </text>
    </g>

    <!-- Action Buttons Section -->
    <g transform="translate(130, 450)">
       

        <!-- Mark Inactive -->
        <g transform="translate(0, 0)">
            <rect width="150" height="40" rx="20" fill="#f59e0b"/>
            <text x="75" y="25" font-family="Arial" font-size="14" fill="white" text-anchor="middle">
                Mark Inactive
            </text>
        </g>
    </g>

    <!-- Information Box -->
    <g transform="translate(130, 520)">
        <rect width="540" height="100" rx="8" fill="#fff7ed" stroke="#fdba74" stroke-width="1"/>
        <text x="20" y="35" font-family="Arial" font-size="14" font-weight="bold" fill="#c2410c">
            Mark Inactive Information
        </text>
        <text x="20" y="65" font-family="Arial" font-size="14" fill="#9a3412">
            • Partner will receive notifications requesting authorization revocation
        </text>
        <text x="20" y="85" font-family="Arial" font-size="14" fill="#9a3412">
            • System will track authorization status until manually revoked
        </text>
    </g>

    <!-- Hover Effects -->
    <g opacity="0">
        <rect x="130" y="450" width="150" height="40" rx="20" fill="#2563eb"/> <!-- Test Connection -->
        <rect x="300" y="450" width="150" height="40" rx="20" fill="#059669"/> <!-- Reauthorize -->
        <rect x="470" y="450" width="150" height="40" rx="20" fill="#d97706"/> <!-- Mark Inactive -->
    </g>
</svg>
